<?xml version="1.0" encoding="utf-8"?>
<!-- Generator: Adobe Illustrator 27.1.1, SVG Export Plug-In . SVG Version: 6.00 Build 0)  -->
<svg version="1.1" id="Layer_1" xmlns="http://www.w3.org/2000/svg" xmlns:xlink="http://www.w3.org/1999/xlink" x="0px" y="0px"
	 viewBox="0 0 50 50" style="enable-background:new 0 0 50 50;" xml:space="preserve">
<style type="text/css">
	.st0{fill:#34495E;stroke:#34495E;stroke-width:0.75;stroke-miterlimit:10;}
</style>
<g>
	<g>
		<g>
			<path class="st0" d="M32.3,41H10.1c-0.1,0-0.3-0.1-0.3-0.3V11.8c0-0.1,0.1-0.3,0.3-0.3h22.2c0.1,0,0.3,0.1,0.3,0.3v28.9
				C32.6,40.8,32.5,41,32.3,41z M10.4,40.4h21.7V12H10.4V40.4z"/>
		</g>
		<g>
			<path class="st0" d="M29.7,25.6h-17c-0.1,0-0.3-0.1-0.3-0.3v-1.9c0-0.1,0.1-0.3,0.3-0.3h17c0.1,0,0.3,0.1,0.3,0.3v1.9
				C30,25.4,29.8,25.6,29.7,25.6z M13,25h16.4v-1.4H13V25z"/>
		</g>
		<g>
			<path class="st0" d="M29.7,28.1h-17c-0.1,0-0.3-0.1-0.3-0.3s0.1-0.3,0.3-0.3h17c0.1,0,0.3,0.1,0.3,0.3S29.8,28.1,29.7,28.1z"/>
		</g>
		<g>
			<path class="st0" d="M24.9,29.8H12.7c-0.1,0-0.3-0.1-0.3-0.3c0-0.1,0.1-0.3,0.3-0.3h12.2c0.1,0,0.3,0.1,0.3,0.3
				C25.1,29.7,25,29.8,24.9,29.8z"/>
		</g>
		<g>
			<path class="st0" d="M29.7,31.5h-17c-0.1,0-0.3-0.1-0.3-0.3c0-0.1,0.1-0.3,0.3-0.3h17c0.1,0,0.3,0.1,0.3,0.3
				C30,31.3,29.8,31.5,29.7,31.5z"/>
		</g>
		<g>
			<path class="st0" d="M29.7,33.1h-17c-0.1,0-0.3-0.1-0.3-0.3c0-0.1,0.1-0.3,0.3-0.3h17c0.1,0,0.3,0.1,0.3,0.3
				C30,33,29.8,33.1,29.7,33.1z"/>
		</g>
		<g>
			<path class="st0" d="M26.5,34.8H12.7c-0.1,0-0.3-0.1-0.3-0.3c0-0.1,0.1-0.3,0.3-0.3h13.8c0.1,0,0.3,0.1,0.3,0.3
				C26.8,34.7,26.7,34.8,26.5,34.8z"/>
		</g>
		<g>
			<path class="st0" d="M29.7,36.5h-17c-0.1,0-0.3-0.1-0.3-0.3c0-0.1,0.1-0.3,0.3-0.3h17c0.1,0,0.3,0.1,0.3,0.3
				C30,36.4,29.8,36.5,29.7,36.5z"/>
		</g>
		<g>
			<path class="st0" d="M18.7,21.3h-5.9c-0.1,0-0.3-0.1-0.3-0.3v-5.9c0-0.1,0.1-0.3,0.3-0.3h5.9c0.1,0,0.3,0.1,0.3,0.3V21
				C18.9,21.1,18.8,21.3,18.7,21.3z M13,20.7h5.4v-5.4H13V20.7z"/>
		</g>
		<g>
			<path class="st0" d="M28.8,13.2c-0.1,0-0.3-0.1-0.3-0.3c0-0.1,0.1-0.3,0.3-0.3c0.4,0,0.7-0.3,0.7-0.7v-1.7c0-0.4-0.3-0.7-0.7-0.7
				c-0.4,0-0.7,0.3-0.7,0.7c0,0.1-0.1,0.3-0.3,0.3c-0.1,0-0.3-0.1-0.3-0.3c0-0.7,0.5-1.2,1.2-1.2c0.7,0,1.2,0.5,1.2,1.2V12
				C30,12.6,29.5,13.2,28.8,13.2z M25.8,13.2c-0.1,0-0.3-0.1-0.3-0.3c0-0.1,0.1-0.3,0.3-0.3c0.4,0,0.7-0.3,0.7-0.7v-1.7
				c0-0.4-0.3-0.7-0.7-0.7c-0.4,0-0.7,0.3-0.7,0.7c0,0.1-0.1,0.3-0.3,0.3c-0.1,0-0.3-0.1-0.3-0.3c0-0.7,0.5-1.2,1.2-1.2
				c0.7,0,1.2,0.5,1.2,1.2V12C27,12.6,26.4,13.2,25.8,13.2z M22.7,13.2c-0.1,0-0.3-0.1-0.3-0.3c0-0.1,0.1-0.3,0.3-0.3
				c0.4,0,0.7-0.3,0.7-0.7v-1.7c0-0.4-0.3-0.7-0.7-0.7c-0.4,0-0.7,0.3-0.7,0.7c0,0.1-0.1,0.3-0.3,0.3c-0.1,0-0.3-0.1-0.3-0.3
				c0-0.7,0.5-1.2,1.2-1.2c0.7,0,1.2,0.5,1.2,1.2V12C23.9,12.6,23.4,13.2,22.7,13.2z M19.7,13.2c-0.1,0-0.3-0.1-0.3-0.3
				c0-0.1,0.1-0.3,0.3-0.3c0.4,0,0.7-0.3,0.7-0.7v-1.7c0-0.4-0.3-0.7-0.7-0.7c-0.4,0-0.7,0.3-0.7,0.7c0,0.1-0.1,0.3-0.3,0.3
				c-0.1,0-0.3-0.1-0.3-0.3C18.5,9.6,19,9,19.7,9c0.7,0,1.2,0.5,1.2,1.2V12C20.9,12.6,20.3,13.2,19.7,13.2z M16.6,13.2
				c-0.1,0-0.3-0.1-0.3-0.3c0-0.1,0.1-0.3,0.3-0.3c0.4,0,0.7-0.3,0.7-0.7v-1.7c0-0.4-0.3-0.7-0.7-0.7c-0.4,0-0.7,0.3-0.7,0.7
				c0,0.1-0.1,0.3-0.3,0.3c-0.1,0-0.3-0.1-0.3-0.3C15.4,9.6,16,9,16.6,9s1.2,0.5,1.2,1.2V12C17.8,12.6,17.3,13.2,16.6,13.2z
				 M13.6,13.2c-0.1,0-0.3-0.1-0.3-0.3c0-0.1,0.1-0.3,0.3-0.3c0.4,0,0.7-0.3,0.7-0.7v-1.7c0-0.4-0.3-0.7-0.7-0.7
				c-0.4,0-0.7,0.3-0.7,0.7c0,0.1-0.1,0.3-0.3,0.3c-0.1,0-0.3-0.1-0.3-0.3c0-0.7,0.5-1.2,1.2-1.2c0.7,0,1.2,0.5,1.2,1.2V12
				C14.8,12.6,14.3,13.2,13.6,13.2z"/>
		</g>
		<g>
			<path class="st0" d="M37.2,39.9L37.2,39.9c-0.1,0-0.2-0.1-0.2-0.1l-2.6-5.4c0,0,0-0.1,0-0.1V15.4c0-0.1,0.1-0.3,0.3-0.3h5.3
				c0.1,0,0.3,0.1,0.3,0.3v18.8c0,0,0,0.1,0,0.1l-2.6,5.4C37.4,39.8,37.3,39.9,37.2,39.9z M34.8,34.1l2.4,4.9l2.4-4.9V15.7h-4.8
				V34.1z"/>
		</g>
		<g>
			<path class="st0" d="M37.2,39.9L37.2,39.9c-0.1,0-0.2-0.1-0.2-0.1l-0.8-1.5c0-0.1,0-0.2,0-0.2c0-0.1,0.1-0.1,0.2-0.1
				c0.5-0.1,1.1-0.1,1.6,0c0.1,0,0.1,0.1,0.2,0.1c0,0.1,0,0.2,0,0.2l-0.8,1.5C37.4,39.8,37.3,39.9,37.2,39.9z M36.8,38.3l0.4,0.7
				l0.4-0.7C37.3,38.3,37.1,38.3,36.8,38.3z"/>
		</g>
		<g>
			<path class="st0" d="M39.9,34.5c0,0-0.1,0-0.1,0l-0.9-0.5l-0.6,0.5c-0.1,0.1-0.2,0.1-0.3,0l-0.9-0.6l-0.6,0.6
				c0,0-0.1,0.1-0.2,0.1l0,0c-0.1,0-0.1,0-0.2-0.1l-0.6-0.6l-0.9,0.6c-0.1,0.1-0.3,0.1-0.4-0.1c-0.1-0.1-0.1-0.3,0.1-0.4l1-0.8
				c0.1-0.1,0.2-0.1,0.3,0l0.6,0.6l0.6-0.6c0.1-0.1,0.2-0.1,0.3,0l0.9,0.6l0.5-0.5c0.1-0.1,0.2-0.1,0.3,0l1,0.6
				c0.1,0.1,0.2,0.2,0.1,0.4C40.1,34.4,40,34.5,39.9,34.5z"/>
		</g>
		<g>
			<path class="st0" d="M37.1,33.9c-0.1,0-0.3-0.1-0.3-0.3l-0.1-18.2c0-0.1,0.1-0.3,0.3-0.3c0,0,0,0,0,0c0.1,0,0.3,0.1,0.3,0.3
				l0.1,18.2C37.4,33.8,37.2,33.9,37.1,33.9L37.1,33.9z"/>
		</g>
		<g>
			<path class="st0" d="M39.8,15.7h-5.3c-0.1,0-0.3-0.1-0.3-0.3v-1.4c0-0.9,0.7-1.6,1.6-1.6h2.5c0.9,0,1.6,0.7,1.6,1.6v1.4
				C40.1,15.6,40,15.7,39.8,15.7z M34.8,15.2h4.8v-1.1c0-0.6-0.5-1.1-1.1-1.1h-2.5c-0.6,0-1.1,0.5-1.1,1.1V15.2z"/>
		</g>
	</g>
</g>
</svg>
