<?xml version="1.0" encoding="utf-8"?>
<!-- Generator: Adobe Illustrator 27.1.1, SVG Export Plug-In . SVG Version: 6.00 Build 0)  -->
<svg version="1.1" id="Layer_1" xmlns="http://www.w3.org/2000/svg" xmlns:xlink="http://www.w3.org/1999/xlink" x="0px" y="0px"
	 viewBox="0 0 50 50" style="enable-background:new 0 0 50 50;" xml:space="preserve">
<style type="text/css">
	.st0{fill:#34495E;}
</style>
<g id="XMLID_9484_">
	<path id="XMLID_9495_" class="st0" d="M16.9,24.6c0,1.1,0.1,2.1,0.4,3.5c0.6,2.5,2.1,5.8,2.6,7c-0.2,0.3-0.3,0.7-0.3,1.1
		c0,0.5,0.2,0.9,0.5,1.3c-0.3,0.3-0.5,0.8-0.5,1.2c0,0.5,0.2,1,0.6,1.4c-0.3,0.3-0.4,0.7-0.4,1.2c0,1.1,0.9,2,2.1,2l7.7,0.1l0,0
		c0.6,0,1.2-0.2,1.6-0.6c0.4-0.4,0.6-0.8,0.6-1.3s-0.2-1-0.6-1.4c0.3-0.3,0.4-0.7,0.4-1.2s-0.2-0.9-0.5-1.3c0.3-0.3,0.5-0.8,0.5-1.2
		c0-0.5-0.2-0.9-0.5-1.3c0.5-1.2,2-4.5,2.6-6.9c0.3-1.4,0.4-2.4,0.4-3.5c0-4.7-3.8-8.6-8.6-8.6C20.7,16.1,16.9,19.9,16.9,24.6z
		 M30.2,41.8C30,42,29.8,42,29.5,42h-7.6c-0.5,0-0.8-0.3-0.8-0.7c0-0.3,0.2-0.5,0.6-0.6c0.3-0.1,0.5-0.4,0.5-0.7s-0.2-0.6-0.5-0.6
		C21.3,39.3,21,39,21,38.7s0.2-0.5,0.5-0.6s0.5-0.3,0.5-0.6s-0.2-0.5-0.5-0.6s-0.6-0.4-0.5-0.7c0-0.1,0-0.2,0.1-0.3H30
		c0.1,0.1,0.2,0.3,0.2,0.4c0,0.3-0.2,0.5-0.5,0.6s-0.5,0.3-0.5,0.6s0.2,0.5,0.5,0.6s0.6,0.4,0.5,0.7c0,0.3-0.2,0.5-0.6,0.6
		c-0.3,0.1-0.5,0.4-0.5,0.7s0.2,0.6,0.5,0.6c0.4,0.1,0.7,0.4,0.7,0.7C30.4,41.5,30.3,41.7,30.2,41.8z M25.5,17.4
		c4,0,7.3,3.3,7.3,7.3c0,1-0.1,1.9-0.4,3.2c-0.6,2.3-2,5.7-2.5,6.8h-8.8c-0.5-1.1-2-4.4-2.5-6.8c-0.3-1.3-0.4-2.2-0.4-3.2
		C18.2,20.6,21.5,17.4,25.5,17.4z"/>
	<path id="XMLID_9492_" class="st0" d="M16.5,9.7c-0.1-0.2-0.3-0.3-0.5-0.3c-0.2,0-0.4,0-0.6,0.2c-0.2,0.1-0.3,0.3-0.3,0.5
		s0,0.4,0.2,0.6l3.9,4.9c0.1,0.2,0.4,0.3,0.6,0.3l0,0l0,0c0.2,0,0.3-0.1,0.4-0.2c0.2-0.1,0.3-0.3,0.3-0.5s0-0.4-0.2-0.6L16.5,9.7z
		 M19.8,15.1C19.8,15.2,19.8,15.2,19.8,15.1c-0.1,0-0.1,0-0.2,0l-3.9-4.9v-0.1c0,0,0,0,0-0.1c0,0,0,0,0.1,0l0,0c0,0,0,0,0.1,0
		l3.9,4.9C19.9,15,19.9,15.1,19.8,15.1C19.9,15.1,19.9,15.1,19.8,15.1z"/>
	<path id="XMLID_9489_" class="st0" d="M30.5,15.6L30.5,15.6c0.1,0.1,0.3,0.1,0.4,0.1l0,0c0.2,0,0.5-0.1,0.6-0.3l3.2-4.8
		c0.1-0.2,0.2-0.4,0.1-0.6c0-0.2-0.2-0.4-0.3-0.5c-0.2-0.1-0.4-0.2-0.6-0.1c-0.2,0-0.4,0.2-0.5,0.3l-3.2,4.8
		c-0.1,0.2-0.2,0.4-0.1,0.6C30.2,15.3,30.3,15.5,30.5,15.6z M30.8,14.9l3.2-4.8h0.1c0,0,0,0,0.1,0v0.1c0,0,0,0,0,0.1L31,15.1h-0.1
		c0,0,0,0-0.1,0C30.8,15.1,30.8,15,30.8,14.9C30.8,15,30.8,15,30.8,14.9z"/>
	<path id="XMLID_9486_" class="st0" d="M25.3,14.5L25.3,14.5C25.3,14.5,25.4,14.5,25.3,14.5c0.4,0,0.8-0.3,0.8-0.7l0.3-6.4
		c0-0.2-0.1-0.4-0.2-0.5c-0.1-0.1-0.3-0.2-0.5-0.2s-0.4,0.1-0.5,0.2C25.1,7,25,7.2,25,7.4l-0.3,6.4c0,0.2,0.1,0.4,0.2,0.5
		C24.9,14.4,25.1,14.5,25.3,14.5L25.3,14.5z M25.2,13.8l0.3-6.4V7.3c0,0,0,0,0.1,0h0.1c0,0,0,0,0,0.1l-0.3,6.4c0,0.1,0,0.1-0.1,0.1
		l0,0C25.3,13.9,25.3,13.8,25.2,13.8L25.2,13.8z"/>
	<path id="XMLID_9485_" class="st0" d="M20.9,23.4L20.9,23.4c0.4,0,0.7-0.3,0.8-0.7c0-0.2,0-0.4,0.1-0.5c0.3-1.2,1.2-1.6,2-1.8
		c0.4-0.1,0.6-0.1,0.6-0.1c0.4,0,0.7-0.3,0.7-0.7c0-0.4-0.3-0.7-0.7-0.7c-1.3,0-3.9,0.9-4.1,3.8C20.2,23,20.5,23.4,20.9,23.4z"/>
</g>
</svg>
