<?xml version="1.0" encoding="utf-8"?>
<!-- Generator: Adobe Illustrator 27.1.1, SVG Export Plug-In . SVG Version: 6.00 Build 0)  -->
<svg version="1.1" id="Layer_1" xmlns="http://www.w3.org/2000/svg" xmlns:xlink="http://www.w3.org/1999/xlink" x="0px" y="0px"
	 viewBox="0 0 50 50" style="enable-background:new 0 0 50 50;" xml:space="preserve">
<style type="text/css">
	.st0{fill-rule:evenodd;clip-rule:evenodd;fill:#34495E;}
</style>
<g>
	<path class="st0" d="M10.4,33.5c-0.9,0.2-1.6,1.1-1.4,2c0.1,0.8,0.9,1.4,1.7,1.4c0.1,0,0.2,0,0.3,0l7.2-1.4c0.4-0.1,0.8-0.3,1-0.6
		l3.4-4.1l-1.2-0.6c-0.8-0.4-1.5-0.7-1.7-1.6l-2.9,3.7L10.4,33.5z"/>
	<path class="st0" d="M38.7,15.2c0-2.1-1.7-3.8-3.8-3.8c-2.1,0-3.8,1.7-3.8,3.8s1.7,3.8,3.8,3.8C37,19,38.7,17.3,38.7,15.2
		L38.7,15.2z"/>
	<path class="st0" d="M26.5,14.2c-0.4-0.4-0.8-0.6-1.2-0.6c-0.1,0-0.3,0-0.5,0l-6.5,1.6c-0.9,0.2-1.4,1.1-1.2,2
		c0.2,0.8,0.9,1.3,1.6,1.3c0.1,0,0.3,0,0.4,0l5.6-1.3c0.4,0.4,2.2,2.4,2.5,2.7l0,0c-2.3,2.5-4.6,4.9-6.9,7.4c0,0-0.1,0.1-0.1,0.1
		c-0.7,0.9-0.5,2.2,0.5,2.7l1.2,0.6l5.8,3l-3.7,5.9c-0.5,0.8-0.3,1.9,0.6,2.4c0.3,0.2,0.6,0.3,0.9,0.3l0,0c0.6,0,1.2-0.3,1.5-0.8
		l4.7-7.5c0.3-0.4,0.3-0.9,0.2-1.4c-0.1-0.5-0.5-0.8-0.9-1l-4.8-2.5l5-5.4l3.8,3.2c0.3,0.3,0.7,0.4,1.1,0.4c0.4,0,0.8-0.2,1.2-0.5
		l4.3-4.1c0.7-0.7,0.7-1.7,0.1-2.4c-0.4-0.4-0.8-0.5-1.2-0.5c-0.4,0-0.8,0.1-1.2,0.5l-3.3,3C36.2,23.4,28,15.7,26.5,14.2L26.5,14.2z
		"/>
</g>
</svg>
