<?xml version="1.0" encoding="utf-8"?>
<!-- Generator: Adobe Illustrator 27.1.1, SVG Export Plug-In . SVG Version: 6.00 Build 0)  -->
<svg version="1.1" id="Layer_1" xmlns="http://www.w3.org/2000/svg" xmlns:xlink="http://www.w3.org/1999/xlink" x="0px" y="0px"
	 viewBox="0 0 50 50" style="enable-background:new 0 0 50 50;" xml:space="preserve">
<style type="text/css">
	.st0{fill-rule:evenodd;clip-rule:evenodd;fill:none;stroke:#34495E;stroke-width:2;stroke-miterlimit:10;}
</style>
<g>
	<path class="st0" d="M11.4,18H35v22.3H24.7H23h-2.6h-1.6h-7.4c-2,0-3.5-1.6-3.5-3.6V21.4C7.9,19.4,9.4,18,11.4,18L11.4,18z M29.3,7
		c-3.1,0-5.4,2.5-5.4,5.4c0,2.9,2.3,5.4,5.4,5.4c3,0,5.4-2.5,5.4-5.4C34.7,9.4,32.2,7,29.3,7L29.3,7z M16.1,7
		c-3.1,0-5.4,2.5-5.4,5.4c0,2.9,2.3,5.4,5.4,5.4c3,0,5.4-2.5,5.4-5.4C21.5,9.4,19.1,7,16.1,7L16.1,7z M4.8,22.5h1.3
		c0.3,0,0.7,0.3,0.7,0.7V34c0,0.3-0.3,0.7-0.7,0.7H4.8c-0.3,0-0.7-0.3-0.7-0.7V23.2C4.2,22.9,4.5,22.5,4.8,22.5L4.8,22.5z
		 M43.9,19.4L43.9,19.4l-7.6,4.9v9.5l7.6,4.7h2V19.4H43.9z"/>
</g>
</svg>
